<svg width="20" height="19" viewBox="0 0 20 19" fill="none" xmlns="http://www.w3.org/2000/svg">
<path fill-rule="evenodd" clip-rule="evenodd" d="M11.5469 6.03701H0.857143C0.38376 6.03701 0 5.53955 0 4.9259C0 4.31225 0.38376 3.81478 0.857143 3.81478H11.5469C11.92 2.10478 13.1328 0.851807 14.5714 0.851807C16.0101 0.851807 17.2229 2.10478 17.596 3.81478H19.1429C19.6162 3.81478 20 4.31225 20 4.9259C20 5.53955 19.6162 6.03701 19.1429 6.03701H17.596C17.2229 7.74702 16.0101 8.99999 14.5714 8.99999C13.1328 8.99999 11.92 7.74702 11.5469 6.03701ZM13.1429 4.9259C13.1429 3.90314 13.7824 3.07404 14.5714 3.07404C15.3605 3.07404 16 3.90314 16 4.9259C16 5.94866 15.3605 6.77776 14.5714 6.77776C13.7824 6.77776 13.1429 5.94866 13.1429 4.9259Z" fill="black"/>
<path fill-rule="evenodd" clip-rule="evenodd" d="M8.45314 15.1852H19.1429C19.6162 15.1852 20 14.6877 20 14.0741C20 13.4605 19.6162 12.963 19.1429 12.963H8.45314C8.08 11.2529 6.86718 10 5.42857 10C3.98997 10 2.77712 11.2529 2.40402 12.963H0.857143C0.38376 12.963 0 13.4605 0 14.0741C0 14.6877 0.38376 15.1852 0.857143 15.1852H2.40402C2.77712 16.8953 3.98997 18.1482 5.42857 18.1482C6.86718 18.1482 8.08 16.8953 8.45314 15.1852ZM4 14.0741C4 13.0513 4.63959 12.2222 5.42857 12.2222C6.21755 12.2222 6.85714 13.0513 6.85714 14.0741C6.85714 15.0969 6.21755 15.926 5.42857 15.926C4.63959 15.926 4 15.0969 4 14.0741Z" fill="black"/>
</svg>
